<svg width="158" height="32" xmlns="http://www.w3.org/2000/svg">
  <defs>
    <linearGradient x1="-26.7321739%" y1="42.8552448%" x2="631.945217%" y2="141.441259%" id="a">
      <stop stop-color="#2196F3" stop-opacity=".9796" offset="0%"/>
      <stop stop-color="#64E3B2" offset="100%"/>
    </linearGradient>
    <linearGradient x1="-160.121569%" y1="22.3444444%" x2="582.503922%" y2="120.245833%" id="b">
      <stop stop-color="#2196F3" stop-opacity=".9796" offset="0%"/>
      <stop stop-color="#64E3B2" offset="100%"/>
    </linearGradient>
    <linearGradient x1="-289.160825%" y1="11.7541667%" x2="491.74433%" y2="109.655556%" id="c">
      <stop stop-color="#2196F3" stop-opacity=".9796" offset="0%"/>
      <stop stop-color="#64E3B2" offset="100%"/>
    </linearGradient>
    <linearGradient x1="-399.616327%" y1="-2.65591514%" x2="373.320408%" y2="95.2458333%" id="d">
      <stop stop-color="#2196F3" stop-opacity=".9796" offset="0%"/>
      <stop stop-color="#64E3B2" offset="100%"/>
    </linearGradient>
    <linearGradient x1="-497.612871%" y1="-21.4444444%" x2="252.366337%" y2="76.4569444%" id="e">
      <stop stop-color="#2196F3" stop-opacity=".9796" offset="0%"/>
      <stop stop-color="#64E3B2" offset="100%"/>
    </linearGradient>
    <linearGradient x1="-495.679105%" y1="-39.7409722%" x2="120.156911%" y2="58.1604167%" id="f">
      <stop stop-color="#2196F3" stop-opacity=".9796" offset="0%"/>
      <stop stop-color="#64E3B2" offset="100%"/>
    </linearGradient>
  </defs>
  <g fill="none" fill-rule="evenodd">
    <path d="M22.2054054 4.69333333c-1.2810811-1.28-2.7756757-2.13333333-4.6972973-2.98666666C15.5864865.85333333 13.6648649.64 11.5297297.64H1.70810811v30.5066667h9.82162159C13.6648649 31.1466667 15.8 30.72 17.5081081 30.08c1.7081081-.64 3.4162162-1.7066667 4.6972973-2.9866667 1.2810811-1.28 2.3486487-2.7733333 2.9891892-4.6933333.6405405-1.7066667 1.0675676-3.84 1.0675676-5.9733333V15.36c0-2.1333333-.4270271-4.2666667-1.0675676-5.97333333C24.5540541 7.68 23.4864865 5.97333333 22.2054054 4.69333333zM19.6432432 16.64c0 2.9866667-.6405405 5.3333333-2.1351351 7.04-1.4945946 1.7066667-3.4162162 2.56-5.9783784 2.56H8.32702703V5.76h3.20270267c2.5621622 0 4.6972973.85333333 5.9783784 2.34666667C18.7891892 9.81333333 19.6432432 12.16 19.6432432 15.1466667V16.64z" fill="#441F1F" fill-rule="nonzero"/>
    <path d="M22.2054054 4.69333333c-1.2810811-1.28-2.7756757-2.13333333-4.6972973-2.98666666C15.5864865.85333333 13.6648649.64 11.5297297.64H1.70810811v30.5066667h9.82162159C13.6648649 31.1466667 15.8 30.72 17.5081081 30.08c1.7081081-.64 3.4162162-1.7066667 4.6972973-2.9866667 1.2810811-1.28 2.3486487-2.7733333 2.9891892-4.6933333.6405405-1.7066667 1.0675676-3.84 1.0675676-5.9733333V15.36c0-2.1333333-.4270271-4.2666667-1.0675676-5.97333333C24.5540541 7.68 23.4864865 5.97333333 22.2054054 4.69333333zM19.6432432 16.64c0 2.9866667-.6405405 5.3333333-2.1351351 7.04-1.4945946 1.7066667-3.4162162 2.56-5.9783784 2.56H8.32702703V5.76h3.20270267c2.5621622 0 4.6972973.85333333 5.9783784 2.34666667C18.7891892 9.81333333 19.6432432 12.16 19.6432432 15.1466667V16.64z" fill="url(#a)" fill-rule="nonzero"/>
    <path fill="#441F1F" d="M37.7918919 18.1333333h12.8108108v-5.12H37.7918919V5.76h14.9459459V.64H31.172973v30.72h21.7783784v-5.12H37.7918919z"/>
    <path fill="url(#b)" d="M37.7918919 18.1333333h12.8108108v-5.12H37.7918919V5.76h14.9459459V.64H31.172973v30.72h21.7783784v-5.12H37.7918919z"/>
    <path fill="#441F1F" d="M63.4135135.64h-6.6189189v30.72h20.7108108v-5.12H63.4135135z"/>
    <path fill="url(#c)" d="M63.4135135.64h-6.6189189v30.72h20.7108108v-5.12H63.4135135z"/>
    <path fill="#441F1F" d="M87.9675676.64h-6.618919v30.72h20.9243244v-5.12H87.9675676z"/>
    <path fill="url(#d)" d="M87.9675676.64h-6.618919v30.72h20.9243244v-5.12H87.9675676z"/>
    <path fill="#441F1F" d="M112.735135 18.1333333h12.810811v-5.12h-12.810811V5.76h14.945946V.64h-21.564865v30.72h21.564865v-5.12h-14.945946z"/>
    <path fill="url(#e)" d="M112.735135 18.1333333h12.810811v-5.12h-12.810811V5.76h14.945946V.64h-21.564865v30.72h21.564865v-5.12h-14.945946z"/>
    <path fill="#441F1F" d="M130.02973 5.76h9.821621v25.6h6.618919V5.76h9.821622V.64H130.02973z"/>
    <path fill="url(#f)" d="M130.02973 5.76h9.821621v25.6h6.618919V5.76h9.821622V.64H130.02973z"/>
  </g>
</svg>
